<svg xmlns="http://www.w3.org/2000/svg" version="1.1" width="400px"
     height="89px" style="">
    <path fill="#0037ff"
          d="M38.35302734375,71.69482421875q0-8.37060546875,0.752197265625-16.760498046875t3.143798828125-16.529052734375q0.6943359375-2.43017578125,1.81298828125-4.802490234375t2.73876953125-4.223876953125t3.857421875-3.0087890625t5.3232421875-1.1572265625l0.81005859375,0.0771484375q3.3173828125,0.462890625,4.89892578125,2.680908203125t1.58154296875,5.535400390625q0,0.88720703125-0.212158203125,2.218017578125t-0.675048828125,2.565185546875t-1.253662109375,2.102294921875t-1.986572265625,0.867919921875q-0.5400390625-0.0771484375-0.983642578125-0.19287109375t-0.829345703125-0.50146484375q0.6171875-1.35009765625,1.099365234375-2.81591796875t0.482177734375-3.35595703125q0-0.6943359375-0.11572265625-1.7744140625t-0.443603515625-2.140869140625t-0.867919921875-1.8515625t-1.50439453125-0.790771484375q-2.43017578125,0-4.0888671875,2.719482421875t-2.77734375,6.943359375t-1.65869140625,9.3349609375t-0.829345703125,9.875t-0.327880859375,8.60205078125t-0.03857421875,5.419677734375q0,1.8515625-0.03857421875,4.0888671875l0,0.50146484375q0.03857421875,1.96728515625,0.27001953125,3.74169921875q0.30859375,2.005859375,1.19580078125,3.4716796875t2.77734375,1.697265625q0.57861328125,0.0771484375,1.11865234375,0.0771484375q2.2373046875,0,4.05029296875-1.27294921875q2.2373046875-1.58154296875,3.97314453125-4.108154296875t3.0859375-5.5546875t2.488037109375-5.728271484375t2.218017578125-4.474609375t2.2373046875-1.7744140625q0.3857421875,0,1.1572265625,0.154296875t0.771484375,0.73291015625q0,0.154296875-0.0771484375,0.42431640625t-0.19287109375,0.42431640625q-1.04150390625,4.0888671875-2.642333984375,8.486328125t-4.0888671875,8.004150390625t-6.0947265625,5.882568359375t-8.659912109375,2.27587890625q-3.6259765625,0-5.882568359375-1.369384765625t-3.4716796875-3.66455078125t-1.65869140625-5.188232421875t-0.443603515625-5.86328125z M78.688930664062,70.3447265625q0-2.19873046875,0.559326171875-4.532470703125t1.7744140625-4.20458984375t3.066650390625-3.04736328125t4.474609375-1.176513671875q1.96728515625,0,4.146728515625,0.675048828125t3.992431640625,1.9287109375t2.950927734375,3.066650390625t1.137939453125,4.05029296875q0,2.7001953125-0.983642578125,5.13037109375t-2.758056640625,4.339599609375t-4.146728515625,3.0087890625t-5.149658203125,1.099365234375q-2.27587890625,0-3.97314453125-0.829345703125t-2.835205078125-2.218017578125t-1.697265625-3.27880859375t-0.559326171875-4.01171875z M84.359340820312,70.267578125q0,0.6943359375,0.212158203125,2.04443359375t0.636474609375,2.642333984375t1.099365234375,2.2373046875t1.639404296875,0.867919921875q2.04443359375-0.2314453125,3.375244140625-1.330810546875t2.16015625-2.680908203125t1.1572265625-3.43310546875t0.327880859375-3.51025390625q0-2.12158203125-0.829345703125-3.548828125t-2.719482421875-2.314453125q0,0.0771484375,0.0771484375,0.0771484375t0.0771484375-0.0771484375l-0.96435546875-0.2314453125q-0.3857421875-0.154296875-0.945068359375-0.34716796875t-1.099365234375-0.8486328125q-1.50439453125,0.5400390625-2.333740234375,1.388671875t-1.253662109375,2.063720703125t-0.520751953125,2.912353515625t-0.096435546875,4.0888671875z M107.91545898437,68.68603515625q0-3.548828125,0.829345703125-6.962646484375t1.407958984375-6.808349609375q0.154296875-0.88720703125,1.215087890625-1.099365234375t1.793701171875-0.212158203125q1.27294921875,0,2.04443359375,0.3857421875q0.30859375,0.154296875,0.57861328125,0.34716796875t0.27001953125,0.50146484375q0,3.3173828125-0.790771484375,6.48046875t-0.790771484375,6.7119140625q0,1.19580078125,0.173583984375,2.256591796875t0.327880859375,2.102294921875l0.2314453125,1.11865234375q0,0.30859375,0.03857421875,0.5400390625t0.11572265625,0.5400390625q0,0.6943359375-0.983642578125,0.945068359375t-1.716552734375,0.250732421875q-1.11865234375,0-2.063720703125-0.443603515625t-1.485107421875-1.523681640625l-0.5400390625-1.11865234375q-0.462890625-0.88720703125-0.462890625-1.986572265625t-0.19287109375-2.025146484375z M110.38420898437,45.46435546875l0-0.73291015625q0-1.81298828125,0.906494140625-3.240234375t2.719482421875-1.42724609375q0.2314453125,0,0.443603515625,0.03857421875t0.443603515625,0.03857421875q0.462890625,0.0771484375,1.215087890625,0.366455078125t0.752197265625,0.906494140625l0,0.0771484375q-0.154296875,0.30859375-0.19287109375,0.636474609375t-0.19287109375,0.559326171875l0.0771484375-0.0771484375q-0.462890625,1.19580078125-0.752197265625,1.9287109375t-0.636474609375,1.176513671875t-0.867919921875,0.636474609375t-1.485107421875,0.19287109375q-0.154296875,0-0.5400390625-0.03857421875t-0.829345703125-0.154296875t-0.752197265625-0.30859375t-0.30859375-0.57861328125z M124.79823730469,69.8046875l0-1.11865234375q0-1.388671875,0.0771484375-2.623046875q0.0771484375-1.73583984375,0.0771484375-2.8544921875q0-0.6171875,0.0771484375-1.407958984375t0.3857421875-1.253662109375q0.3857421875-0.3857421875,0.906494140625-0.790771484375t1.137939453125-0.405029296875q1.96728515625,0,3.0859375,0.443603515625t1.19580078125,1.832275390625l0.154296875,1.19580078125q0.6943359375-1.65869140625,1.8515625-4.108154296875t2.680908203125-4.66748046875t3.43310546875-3.7802734375t4.031005859375-1.562255859375q1.96728515625,0,3.240234375,1.8515625t2.025146484375,4.725341796875t1.060791015625,6.4033203125t0.42431640625,6.924072265625t0.154296875,6.191162109375t0.27001953125,4.223876953125q0.154296875,1.19580078125,0.520751953125,2.526611328125t0.366455078125,2.449462890625q0,0.30859375-0.443603515625,0.597900390625t-0.945068359375,0.482177734375t-1.022216796875,0.30859375t-0.752197265625,0.11572265625q-1.50439453125,0-2.140869140625-2.256591796875t-0.790771484375-5.651123046875t-0.154296875-7.348388671875t-0.27001953125-7.348388671875t-1.099365234375-5.651123046875t-2.642333984375-2.333740234375q-1.65869140625,0-3.43310546875,2.140869140625t-3.04736328125,5.689697265625q-1.234375,3.548828125-1.697265625,8.06201171875q-0.154296875,1.42724609375-0.154296875,2.8544921875q0,3.12451171875,0.65576171875,6.2490234375q0.0771484375,0.5400390625-0.443603515625,0.81005859375t-1.292236328125,0.42431640625t-1.562255859375,0.19287109375t-1.215087890625,0.03857421875q-1.50439453125,0-2.410888671875-1.060791015625t-1.407958984375-2.719482421875t-0.675048828125-3.722412109375t-0.212158203125-4.069580078125z M174.95783691406,77.7509765625q-0.03857421875-1.1572265625-0.03857421875-2.314453125q0-3.6259765625,0.3857421875-7.29052734375q0.462890625-4.8603515625,0.6171875-9.56640625q0.154296875-5.51611328125,0.462890625-11.45654296875q0.19287109375-3.240234375,0.19287109375-6.4033203125q0-2.58447265625-0.11572265625-5.13037109375q0.3857421875-0.88720703125,1.022216796875-1.19580078125t1.600830078125-0.30859375q0.462890625,0,0.983642578125,0.0771484375t0.906494140625,0.3857421875q0.5400390625,0.0771484375,1.330810546875,0.154296875t1.215087890625,0.462890625q0.154296875,0.2314453125,0.790771484375,1.58154296875t1.50439453125,3.27880859375t1.81298828125,4.185302734375t1.81298828125,4.28173828125t1.50439453125,3.568115234375t0.790771484375,1.9287109375q3.6259765625-6.5576171875,7.09765625-13.481689453125t7.59912109375-13.057373046875q0.3857421875-0.5400390625,1.330810546875-0.790771484375t1.562255859375-0.250732421875q1.65869140625,0,2.410888671875,0.790771484375t0.983642578125,2.025146484375q0.154296875,0.771484375,0.19287109375,1.65869140625q0.03857421875,0.462890625-0.03857421875,0.96435546875q-0.154296875,1.42724609375-0.154296875,2.7001953125q0,8.98779296875-0.6171875,17.840576171875t-1.11865234375,17.879150390625q-0.0771484375,1.8515625-0.0771484375,3.857421875t0.0771484375,4.166015625q0.03857421875,0.771484375,0.03857421875,1.50439453125q0,3.39453125-0.57861328125,6.326171875q-0.5400390625,0.88720703125-1.7744140625,1.11865234375t-2.0830078125,0.2314453125q-1.81298828125,0-3.4716796875-0.8486328125l-0.42431640625-0.50146484375l-0.154296875-0.6171875t-0.0771484375-0.6171875q0-5.59326171875,0.405029296875-11.263671875t0.906494140625-11.321533203125t1.060791015625-11.282958984375t0.945068359375-11.263671875q-2.27587890625,3.7802734375-4.416748046875,7.695556640625t-4.031005859375,7.965576171875q-0.6943359375,1.58154296875-1.330810546875,3.39453125t-1.523681640625,3.240234375q-0.462890625,0.6943359375-1.562255859375,0.8486328125t-1.909423828125,0.154296875q-0.771484375,0-1.600830078125-0.27001953125t-1.137939453125-1.1572265625q-1.42724609375-4.35888671875-3.04736328125-8.52490234375t-3.27880859375-8.44775390625q0,2.8544921875,0.11572265625,7.386962890625t0.11572265625,9.392822265625t-0.154296875,9.29638671875t-0.73291015625,7.0205078125q-0.154296875,0.96435546875-1.253662109375,1.19580078125t-1.909423828125,0.2314453125q-0.6171875,0-1.176513671875-0.0771484375t-1.099365234375-0.30859375z M220.77127929687,69.61181640625q0-2.623046875,0.713623046875-5.05322265625t2.140869140625-4.339599609375t3.568115234375-3.04736328125t4.956787109375-1.137939453125q1.73583984375,0,3.838134765625,0.520751953125t3.953857421875,1.54296875t3.0859375,2.603759765625t1.234375,3.6259765625q0,0.96435546875-0.327880859375,1.4658203125t-1.330810546875,0.50146484375l-0.42431640625-0.0771484375q1.11865234375,3.0087890625,1.9287109375,6.171875t1.58154296875,6.326171875q0.30859375,0.6171875,0.462890625,1.099365234375t0.154296875,0.945068359375q0,0.6171875-0.34716796875,1.022216796875t-0.906494140625,0.597900390625t-1.1572265625,0.27001953125t-1.060791015625,0.0771484375q-1.65869140625,0-2.488037109375-0.57861328125t-1.19580078125-1.58154296875t-0.443603515625-2.256591796875t-0.30859375-2.526611328125q-0.462890625,1.50439453125-1.215087890625,2.931640625t-1.7744140625,2.565185546875t-2.410888671875,1.81298828125t-3.12451171875,0.675048828125q-2.5458984375,0-4.28173828125-1.4658203125t-2.796630859375-3.606689453125t-1.54296875-4.571044921875t-0.482177734375-4.51318359375z M226.24881835937,69.07177734375q0,1.42724609375,0.19287109375,3.0087890625t0.636474609375,3.12451171875t1.137939453125,2.912353515625t1.73583984375,2.410888671875q1.89013671875-2.04443359375,2.796630859375-4.97607421875t1.6201171875-5.651123046875t1.6201171875-4.66748046875t2.796630859375-1.947998046875q1.19580078125,0,2.005859375,0.42431640625q-0.3857421875-0.96435546875-1.27294921875-1.870849609375t-1.986572265625-1.65869140625t-2.27587890625-1.234375t-2.218017578125-0.482177734375q-0.30859375,0-0.713623046875,0.096435546875t-0.636474609375,0.019287109375q-1.58154296875,0.462890625-2.603759765625,1.600830078125t-1.65869140625,2.680908203125t-0.906494140625,3.1630859375t-0.27001953125,3.04736328125z M254.20239746094,58.81103515625q0-1.58154296875,0.559326171875-2.66162109375t2.372314453125-1.080078125q0.6943359375,0,1.73583984375,0.212158203125t1.19580078125,1.060791015625q0.3857421875,2.27587890625,0.42431640625,4.9375t0.27001953125,5.0146484375q0.88720703125-1.73583984375,2.27587890625-3.74169921875t3.1630859375-3.703125t3.857421875-2.81591796875t4.2431640625-1.11865234375q0.154296875,0,0.57861328125,0.11572265625t0.790771484375,0.327880859375t0.443603515625,0.482177734375t-0.42431640625,0.50146484375q-0.154296875,0.462890625-0.65576171875,0.559326171875t-0.88720703125,0.096435546875q-0.2314453125,0-0.73291015625-0.19287109375q-2.8544921875,1.50439453125-4.8603515625,4.0888671875t-3.27880859375,5.728271484375t-1.8515625,6.634765625t-0.57861328125,6.808349609375q0,1.65869140625-0.752197265625,2.005859375t-2.410888671875,0.34716796875q-0.88720703125,0-1.870849609375-0.19287109375t-1.369384765625-1.234375q-0.6943359375-2.19873046875-1.137939453125-5.05322265625t-0.675048828125-5.882568359375t-0.327880859375-5.959716796875t-0.096435546875-5.28466796875z M281.6159375,85.27294921875l0.81005859375-0.96435546875q-0.154296875-6.48046875-0.34716796875-12.92236328125t-0.19287109375-12.806640625q0-7.90771484375,0.945068359375-15.294677734375t1.870849609375-15.140380859375q0.0771484375-0.462890625,0.443603515625-0.752197265625t0.906494140625-0.482177734375t1.099365234375-0.27001953125t1.022216796875-0.0771484375q0.6171875,0,1.54296875,0.2314453125t1.8515625,1.35009765625q0,0.3857421875,0.057861328125,0.675048828125t0.057861328125,0.675048828125q0,2.931640625-0.790771484375,6.28759765625t-1.060791015625,6.44189453125q-0.30859375,3.7802734375-0.42431640625,7.4833984375t-0.11572265625,7.52197265625l0.0771484375,3.39453125q0.771484375-0.96435546875,2.19873046875-2.46875t3.0859375-2.912353515625t3.3173828125-2.410888671875t3.0087890625-1.0029296875q2.04443359375,0,2.835205078125,1.1572265625t0.790771484375,3.04736328125q0,1.73583984375-0.752197265625,3.6259765625t-1.96728515625,3.683837890625t-2.758056640625,3.220947265625t-3.04736328125,2.12158203125q2.04443359375,2.5458984375,4.185302734375,4.8603515625t4.686767578125,4.35888671875l0,0.88720703125q-0.0771484375,0.3857421875-0.482177734375,0.57861328125t-0.88720703125,0.30859375t-0.945068359375,0.173583984375t-0.771484375,0.057861328125q-1.89013671875,0-3.645263671875-1.11865234375t-3.27880859375-2.73876953125t-2.873779296875-3.43310546875t-2.46875-3.1630859375q0.2314453125,4.43603515625,0.520751953125,8.852783203125t0.289306640625,8.852783203125q0,0.5400390625-0.482177734375,0.906494140625t-1.11865234375,0.559326171875t-1.292236328125,0.27001953125t-1.080078125,0.0771484375q-2.27587890625,0-3.220947265625-0.829345703125t-1.600830078125-2.873779296875z M289.52365234375,67.1044921875q0.96435546875,0,2.295166015625-0.829345703125t2.758056640625-2.063720703125t2.66162109375-2.603759765625t1.986572265625-2.603759765625t0.752197265625-1.986572265625t-1.04150390625-0.675048828125q-0.3857421875,0-1.58154296875,1.11865234375t-2.66162109375,2.73876953125t-2.931640625,3.51025390625t-2.2373046875,3.39453125z M312.84832519531,71.193359375q0-2.7001953125,0.597900390625-6.36474609375t2.025146484375-6.943359375t3.760986328125-5.573974609375t5.882568359375-2.295166015625q3.3173828125,0,4.97607421875,1.909423828125t1.65869140625,5.149658203125q0,2.12158203125-0.790771484375,4.648193359375t-2.256591796875,4.783203125t-3.4716796875,3.760986328125t-4.474609375,1.50439453125l-1.0029296875-0.0771484375q0,1.04150390625,0.30859375,2.796630859375t0.906494140625,3.490966796875t1.54296875,3.04736328125t2.295166015625,1.3115234375q1.96728515625,0,3.7802734375-1.58154296875t3.43310546875-3.51025390625t3.0087890625-3.51025390625t2.5458984375-1.58154296875q0.6171875,0,1.27294921875,0.19287109375t0.73291015625,1.080078125q0,0.5400390625-0.289306640625,0.88720703125t-0.520751953125,0.771484375q-1.19580078125,2.04443359375-2.603759765625,3.89599609375t-3.182373046875,3.35595703125t-3.876708984375,2.372314453125t-4.648193359375,0.867919921875q-3.3173828125,0-5.51611328125-1.176513671875t-3.548828125-3.1630859375t-1.947998046875-4.59033203125t-0.597900390625-5.458251953125z M319.75311035156,68.26171875l1.080078125,0.96435546875q0.771484375,0.6943359375,1.54296875,0.30859375t1.388671875-1.407958984375t1.137939453125-2.526611328125t0.92578125-3.0859375t0.597900390625-3.0859375t0.19287109375-2.50732421875l0-1.3115234375t-0.11572265625-1.388671875t-0.405029296875-1.099365234375t-0.906494140625-0.559326171875q-0.19287109375-0.03857421875-0.34716796875-0.03857421875q-1.3115234375,0-2.2373046875,1.65869140625q-1.0029296875,1.8515625-1.6201171875,4.493896484375t-0.88720703125,5.419677734375t-0.34716796875,4.166015625z M343.50209960938,45.1171875q0-0.5400390625,1.1572265625-0.92578125t2.623046875-0.636474609375t2.835205078125-0.366455078125t1.870849609375-0.19287109375q0-1.04150390625,0.0771484375-2.102294921875t0.42431640625-1.89013671875t1.099365234375-1.330810546875t2.102294921875-0.50146484375q1.11865234375,0,1.697265625,0.27001953125t1.234375,1.11865234375q0.154296875,0.462890625,0.154296875,0.88720703125l0,1.292236328125t-0.0771484375,1.330810546875q1.42724609375-0.154296875,2.835205078125-0.366455078125t2.835205078125-0.212158203125q1.04150390625,0,1.42724609375,0.03857421875t0.771484375,0.92578125q0.30859375,0.88720703125-0.752197265625,1.35009765625t-2.5458984375,0.6943359375t-2.950927734375,0.34716796875t-1.7744140625,0.11572265625q-0.462890625,6.634765625-0.945068359375,13.15380859375t-0.482177734375,13.23095703125q0,3.0087890625,0.19287109375,6.21044921875t1.080078125,6.05615234375q0.2314453125,0.88720703125,0.771484375,1.65869140625t0.5400390625,1.65869140625q0,0.5400390625-0.42431640625,0.8486328125t-1.022216796875,0.520751953125t-1.19580078125,0.250732421875t-0.983642578125,0.03857421875q-2.43017578125,0-3.703125-1.81298828125t-1.832275390625-4.339599609375t-0.597900390625-5.188232421875t-0.03857421875-4.3203125q0-3.39453125,0.135009765625-6.943359375t0.327880859375-7.0205078125t0.5400390625-6.7890625t0.81005859375-6.171875q-1.35009765625,0.154296875-2.642333984375,0.34716796875t-2.642333984375,0.19287109375q-0.30859375,0-0.829345703125-0.03857421875t-0.983642578125-0.19287109375t-0.790771484375-0.42431640625t-0.327880859375-0.771484375z"/>
    <path fill="#" d=""/>
</svg>